<svg width="123" height="30" viewBox="0 0 123 30" fill="none" xmlns="http://www.w3.org/2000/svg">
<path d="M0 13.6527C0 23.4345 8.12658 26.4801 12.3774 26.7802V29.6308C16.6782 29.5057 25.58 26.6002 25.58 15.9781C25.58 6.00116 17.0533 2.75053 12.7525 2.77554V0C7.57647 0 0 4.72592 0 13.6527Z" fill="#6BBF56"/>
<path d="M11.478 5.77637H14.9287V9.07701H11.478V5.77637Z" fill="white"/>
<path d="M11.478 10.877H14.9287V24.3796H11.478V10.877Z" fill="white"/>
<path d="M109.324 20.872V8.74072H111.646L116.811 17.3019H115.58L120.658 8.74072H122.963L122.998 20.872H120.364L120.346 12.7787H120.832L116.776 19.5895H115.511L111.369 12.7787H111.958V20.872H109.324Z" fill="#6BBF56"/>
<path d="M101.057 21.08C99.3352 21.08 97.9892 20.6005 97.0187 19.6415C96.0482 18.6826 95.5629 17.3135 95.5629 15.5342V8.74072H98.3704V15.4303C98.3704 16.5856 98.6073 17.4175 99.081 17.9258C99.5547 18.4342 100.219 18.6884 101.074 18.6884C101.929 18.6884 102.593 18.4342 103.067 17.9258C103.541 17.4175 103.778 16.5856 103.778 15.4303V8.74072H106.55V15.5342C106.55 17.3135 106.065 18.6826 105.095 19.6415C104.124 20.6005 102.778 21.08 101.057 21.08Z" fill="#6BBF56"/>
<path d="M89.9802 20.872V8.74072H92.7877V20.872H89.9802Z" fill="#6BBF56"/>
<path d="M79.5205 20.872V8.74072H82.328V18.5844H88.411V20.872H79.5205Z" fill="#6BBF56"/>
<path d="M73.8357 20.872V8.74072H76.6432V20.872H73.8357Z" fill="#6BBF56"/>
<path d="M65.6339 20.872V11.0283H61.7518V8.74072H72.3234V11.0283H68.4414V20.872H65.6339Z" fill="#6BBF56"/>
<path d="M57.4341 20.872V8.74072H60.2416V20.872H57.4341Z" fill="#6BBF56"/>
<path d="M53.7322 14.7889C53.2701 14.7889 52.8715 14.6329 52.5364 14.3209C52.2129 13.9974 52.0511 13.5873 52.0511 13.0905C52.0511 12.5937 52.2129 12.1951 52.5364 11.8947C52.8715 11.5827 53.2701 11.4268 53.7322 11.4268C54.2059 11.4268 54.6045 11.5827 54.928 11.8947C55.2515 12.1951 55.4132 12.5937 55.4132 13.0905C55.4132 13.5873 55.2515 13.9974 54.928 14.3209C54.6045 14.6329 54.2059 14.7889 53.7322 14.7889ZM53.7322 21.0105C53.2701 21.0105 52.8715 20.8545 52.5364 20.5425C52.2129 20.219 52.0511 19.8089 52.0511 19.3121C52.0511 18.8153 52.2129 18.4167 52.5364 18.1163C52.8715 17.8043 53.2701 17.6484 53.7322 17.6484C54.2059 17.6484 54.6045 17.8043 54.928 18.1163C55.2515 18.4167 55.4132 18.8153 55.4132 19.3121C55.4132 19.8089 55.2515 20.219 54.928 20.5425C54.6045 20.8545 54.2059 21.0105 53.7322 21.0105Z" fill="#6BBF56"/>
<path d="M46.2655 21.0799C45.3296 21.0799 44.4573 20.9297 43.6486 20.6293C42.8514 20.3174 42.1582 19.8783 41.5689 19.3122C40.9797 18.7461 40.5176 18.0818 40.1825 17.3192C39.859 16.5567 39.6973 15.719 39.6973 14.8063C39.6973 13.8936 39.859 13.0559 40.1825 12.2934C40.5176 11.5309 40.9797 10.8665 41.5689 10.3004C42.1697 9.73429 42.8687 9.30103 43.6659 9.00063C44.4631 8.68869 45.3354 8.53271 46.2828 8.53271C47.3342 8.53271 48.2816 8.71757 49.125 9.08729C49.98 9.44545 50.6963 9.97691 51.274 10.6817L49.4716 12.3454C49.0557 11.8717 48.5935 11.5193 48.0852 11.2882C47.5768 11.0456 47.0222 10.9243 46.4215 10.9243C45.8553 10.9243 45.3354 11.0167 44.8617 11.2016C44.388 11.3865 43.9779 11.6522 43.6313 11.9988C43.2847 12.3454 43.0131 12.7556 42.8167 13.2292C42.6319 13.7029 42.5394 14.2286 42.5394 14.8063C42.5394 15.384 42.6319 15.9097 42.8167 16.3834C43.0131 16.8571 43.2847 17.2672 43.6313 17.6138C43.9779 17.9604 44.388 18.2262 44.8617 18.411C45.3354 18.5959 45.8553 18.6883 46.4215 18.6883C47.0222 18.6883 47.5768 18.5728 48.0852 18.3417C48.5935 18.0991 49.0557 17.7352 49.4716 17.2499L51.274 18.9136C50.6963 19.6184 49.98 20.1556 49.125 20.5253C48.2816 20.8951 47.3284 21.0799 46.2655 21.0799Z" fill="#6BBF56"/>
<path d="M34.7826 20.872V9.78055L35.9958 10.9937H32.3564V8.74072H37.5902V20.872H34.7826Z" fill="#6BBF56"/>
</svg>
