<svg width="104" height="21" viewBox="0 0 104 21" fill="none" xmlns="http://www.w3.org/2000/svg">
<path d="M10.7556 0H11.7447C12.9357 0.096499 14.213 0.167602 15.2326 0.858317C15.8129 1.23669 16.1087 2.00994 15.8611 2.66637C15.5348 3.57167 14.58 4.33095 13.5833 4.14939C13.0208 3.99194 12.551 3.62627 12.1054 3.2644C11.3804 2.67145 10.6807 2.02263 9.81989 1.62649C9.14441 1.29129 8.35084 1.31033 7.62965 1.4665C6.34344 1.77377 5.32768 2.75017 4.67632 3.86497C3.8726 5.27688 3.45487 6.90972 3.49296 8.53367C3.49042 10.4954 4.04147 12.4774 5.15754 14.1C6.28504 15.7405 8.02834 16.9759 9.9875 17.381C11.3753 17.6971 12.8773 17.6222 14.1813 17.0293C14.759 16.7753 15.2986 16.4414 15.8116 16.0757C16.0846 16.2357 16.3627 16.3855 16.6534 16.51C15.3494 17.9879 13.6595 19.1471 11.7638 19.7185C9.77416 20.314 7.57251 20.2797 5.64002 19.49C3.53105 18.6418 1.8322 16.9086 0.910376 14.8454C0.349169 13.6442 0.0837995 12.3263 0 11.0071V10.1208C0.0863414 8.89301 0.33774 7.66901 0.841811 6.54152C1.72299 4.51508 3.28218 2.81239 5.17276 1.67858C6.85131 0.651385 8.79521 0.101576 10.7556 0Z" fill="black"/>
<path d="M31.4012 0H31.4126C31.5739 0.0558685 31.7313 0.115543 31.8913 0.17268C31.7694 1.23161 31.6716 2.29435 31.5447 3.35329C33.3679 2.02772 35.2839 0.680561 37.5249 0.191727C37.9528 0.0914218 38.3896 0.0482495 38.8251 3.25044e-06H39.6187C40.4529 0.0711066 41.3061 0.195537 42.054 0.594222C42.939 1.02592 43.6309 1.7979 44.0233 2.69304C44.5959 3.95893 44.6924 5.37338 44.7026 6.74338C44.7026 9.48086 44.7038 12.2171 44.7026 14.9545C44.6975 15.5259 44.7102 16.0998 44.7648 16.6686C44.8397 17.1334 44.8981 17.6336 45.2041 18.012C45.4872 18.3802 45.9278 18.5833 46.3646 18.7027C46.9334 18.8563 47.5124 18.9744 48.0978 19.0341C48.1092 19.2537 48.1117 19.4734 48.1117 19.6931H37.9414C37.9477 19.4772 37.9122 19.2525 37.9693 19.0404C38.8416 18.8893 39.7888 18.7967 40.5278 18.2634C41.2274 17.7123 41.2629 16.7499 41.3277 15.9348C41.3696 14.0099 41.3429 12.0825 41.3505 10.1563C41.3391 8.85363 41.4026 7.54076 41.1702 6.25202C40.9925 5.27181 40.6471 4.27128 39.9221 3.55644C38.9648 2.55465 37.5033 2.24357 36.1638 2.28039C35.4705 2.25373 34.7748 2.36165 34.1196 2.58893C33.241 2.9089 32.4652 3.45867 31.7833 4.08972C31.6868 4.15955 31.7287 4.28779 31.7173 4.38683C31.7249 8.20609 31.7135 12.0254 31.7224 15.8459C31.7643 16.4896 31.7783 17.16 32.0563 17.7543C32.2938 18.2469 32.8042 18.5338 33.3095 18.6824C33.9012 18.8487 34.5068 18.9706 35.1188 19.0366C35.1214 19.255 35.1214 19.4747 35.1214 19.6931C31.7338 19.6931 28.3437 19.6931 24.9549 19.6944C24.9625 19.4747 24.9638 19.255 24.9689 19.0354C25.5783 18.9694 26.1827 18.8424 26.7706 18.6621C27.3229 18.4869 27.8511 18.1301 28.0644 17.5701C28.4009 16.6255 28.3298 15.6072 28.3704 14.6219V5.93078C28.359 5.3556 28.3653 4.75757 28.1088 4.22811C27.7038 3.42312 26.942 2.88349 26.2373 2.35784C26.236 2.21182 26.2348 2.06707 26.2322 1.92233C27.9527 1.27478 29.682 0.651355 31.4012 0Z" fill="black"/>
<path d="M56.1096 3.25044e-06H56.9997C57.5482 0.0584104 58.0992 0.114276 58.6312 0.26283C60.0647 0.622157 61.3662 1.51349 62.1686 2.75907C62.8746 3.83324 63.2021 5.1169 63.2631 6.39169C59.0566 6.38534 54.8501 6.3955 50.6448 6.38661C50.5521 7.09638 50.514 7.81376 50.467 8.5286C50.2753 10.5703 50.8327 12.6882 52.0605 14.3388C53.1499 15.8307 54.8196 16.8807 56.6365 17.2121C57.8313 17.4216 59.0934 17.414 60.2438 16.9937C61.483 16.5569 62.4911 15.6389 63.2631 14.5965C63.484 14.7565 63.705 14.9177 63.9233 15.0841C62.7679 17.0318 61.0399 18.6799 58.9233 19.5331C56.0918 20.6885 52.6712 20.1172 50.3058 18.1999C49.0259 17.1854 48.0584 15.8027 47.4667 14.2854C46.8052 12.6259 46.6275 10.795 46.8433 9.02884C47.1671 6.09964 48.7161 3.26565 51.1819 1.60617C52.6268 0.606919 54.365 0.0977732 56.1096 3.25044e-06ZM54.4882 1.031C53.263 1.26716 52.2904 2.19405 51.6746 3.23901C51.2594 3.96909 50.9026 4.75758 50.782 5.59304C51.7419 5.49019 52.7081 5.53337 53.6693 5.45464C55.4938 5.38862 57.3171 5.31244 59.1404 5.22229C58.8458 3.94243 58.338 2.63464 57.3235 1.75219C56.5616 1.07925 55.4799 0.804994 54.4882 1.031Z" fill="black"/>
<path d="M97.5484 1.62522e-05H98.2899C99.8542 0.101592 101.445 0.526942 102.73 1.44621C102.78 2.73115 102.807 4.0199 102.876 5.30484C102.555 5.37213 102.23 5.42419 101.909 5.49148C101.512 4.19258 101.031 2.83907 100.026 1.87917C98.9577 0.860872 97.1078 0.732633 95.9701 1.70141C95.254 2.31976 94.9353 3.30124 94.9925 4.22939C94.9848 5.22103 95.6006 6.09077 96.3307 6.70912C97.5458 7.72234 99.0136 8.35338 100.368 9.15203C101.467 9.79957 102.573 10.536 103.286 11.6203C103.899 12.5421 104.104 13.6963 103.951 14.7857C103.813 16.0617 103.169 17.2591 102.226 18.1225C100.828 19.4226 98.9095 20.0613 97.0227 20.1261C95.0674 20.173 93.0676 19.6728 91.4614 18.53C91.3586 17.3797 91.3091 16.2255 91.1999 15.0752C91.144 14.6168 91.1796 14.1496 91.0881 13.6937C91.4322 13.6226 91.7776 13.5426 92.1306 13.5261C92.434 15.0409 93.0676 16.5341 94.1367 17.6704C94.9468 18.5097 96.0996 19.0227 97.2729 18.9986C98.1477 19.0214 99.0352 18.6913 99.6586 18.0729C100.874 16.8655 100.999 14.7108 99.8872 13.3966C99.2549 12.6234 98.3775 12.1028 97.5078 11.6368C96.1314 10.8928 94.6535 10.2884 93.4498 9.26629C92.6473 8.60351 92.0239 7.70329 91.7814 6.68372C91.5173 5.53591 91.5833 4.28271 92.1077 3.21488C92.5991 2.19277 93.4599 1.38397 94.4528 0.85324C95.4026 0.335201 96.4729 0.0800063 97.5484 1.62522e-05Z" fill="black"/>
<path d="M61.2095 0.426655C64.2759 0.431735 67.3435 0.431735 70.4111 0.426655C70.4073 0.643774 70.4073 0.860894 70.4098 1.07801C69.8384 1.11483 69.2467 1.13769 68.7109 1.36497C68.3643 1.48813 68.0596 1.75857 67.9643 2.12298C67.892 2.53817 67.9504 2.96733 68.0837 3.36474C68.377 4.27639 68.7541 5.15757 69.0969 6.05017C70.2981 9.13301 71.5208 12.2057 72.7105 15.2923C74.0767 12.1244 75.4035 8.9362 76.7558 5.76195C76.8472 5.56388 76.7113 5.36707 76.6504 5.18297C76.2225 4.16847 75.9305 3.07145 75.2702 2.17377C74.7115 1.41449 73.7212 1.23165 72.8502 1.07802C72.8527 0.8609 72.8527 0.645052 72.854 0.427932C75.9571 0.427932 79.0628 0.43809 82.1672 0.422852C82.1672 0.639971 82.1672 0.858358 82.1685 1.07675C81.4981 1.12754 80.8074 1.17325 80.189 1.46401C79.7916 1.65447 79.4767 2.0595 79.4983 2.51532C79.5161 3.11716 79.7624 3.68218 79.9681 4.23831C81.3445 7.92424 82.7564 11.5962 84.1175 15.286C84.6838 14.1268 85.1828 12.9358 85.7122 11.7588C86.5909 9.74373 87.4568 7.71982 88.1932 5.64767C88.4878 4.7538 88.7951 3.85485 88.9182 2.91908C88.9982 2.41627 88.8509 1.83729 88.4116 1.54018C87.8428 1.17704 87.1483 1.17704 86.5045 1.08055C86.5071 0.862158 86.5058 0.645042 86.5045 0.426651C88.9576 0.435538 91.4107 0.424113 93.8637 0.431732C93.8612 0.645042 93.8612 0.858352 93.8624 1.07166C93.1235 1.14785 92.3693 1.34465 91.7839 1.8246C90.8748 2.54706 90.4152 3.64662 89.934 4.66873C87.6117 9.82373 85.3161 14.9914 82.9887 20.1426C82.8033 20.1375 82.6192 20.1401 82.4351 20.1528H82.3996C80.6728 15.7316 78.9345 11.3144 77.2141 6.89071C75.3743 11.3029 73.5764 15.7342 71.7506 20.1528H71.7176C71.5144 20.1375 71.3113 20.135 71.1081 20.1375C68.9318 14.7387 66.7606 9.33869 64.5729 3.94374C64.2517 3.19716 63.9216 2.41502 63.307 1.85635C62.7382 1.33197 61.9586 1.13135 61.2057 1.07295C61.2095 0.857097 61.2095 0.642503 61.2095 0.426655Z" fill="black"/>
<path d="M15.9143 5.92809C16.7713 5.22467 17.8214 4.74346 18.9324 4.64442C20.5436 4.46666 22.2184 5.07104 23.3548 6.2252C24.3591 7.23461 24.947 8.64906 24.9266 10.0762C24.9393 11.3053 24.5026 12.5306 23.7293 13.4841C22.9078 14.51 21.7016 15.2261 20.404 15.4356C19.1177 15.649 17.7515 15.4115 16.6418 14.7183C15.2388 13.8714 14.2573 12.3592 14.0796 10.7301C13.8739 9.21538 14.3703 7.64349 15.362 6.48805C15.0636 6.96419 14.896 7.52159 14.9722 8.08661C15.0776 9.07063 15.9105 9.9226 16.8907 10.0521C18.0499 10.254 19.2422 9.40329 19.4517 8.25294C19.5444 7.7349 19.4796 7.1775 19.2142 6.7166C18.8156 5.97891 17.9839 5.49007 17.1408 5.54213C16.699 5.53578 16.2939 5.72494 15.9143 5.92809Z" fill="#005DA3"/>
</svg>
