<svg width="24" height="24" viewBox="0 0 24 24" fill="none" xmlns="http://www.w3.org/2000/svg">
<path d="M12 24C9.62663 24 7.30655 23.2962 5.33316 21.9776C3.35977 20.6591 1.8217 18.7849 0.913451 16.5922C0.00519945 14.3995 -0.232441 11.9867 0.230582 9.65892C0.693604 7.33115 1.83649 5.19295 3.51472 3.51472C5.19295 1.83649 7.33115 0.693604 9.65892 0.230582C11.9867 -0.232441 14.3995 0.00519945 16.5922 0.913451C18.7849 1.8217 20.6591 3.35977 21.9776 5.33316C23.2962 7.30655 24 9.62663 24 12C24 15.1826 22.7357 18.2348 20.4853 20.4853C18.2348 22.7357 15.1826 24 12 24ZM12 2.18182C10.0581 2.18182 8.1599 2.75765 6.54531 3.83648C4.93072 4.91532 3.6723 6.44871 2.92919 8.24275C2.18607 10.0368 1.99164 12.0109 2.37048 13.9154C2.74931 15.82 3.6844 17.5694 5.0575 18.9425C6.4306 20.3156 8.18003 21.2507 10.0846 21.6295C11.9891 22.0084 13.9632 21.8139 15.7573 21.0708C17.5513 20.3277 19.0847 19.0693 20.1635 17.4547C21.2424 15.8401 21.8182 13.9419 21.8182 12C21.8182 9.39606 20.7838 6.89877 18.9425 5.0575C17.1012 3.21623 14.6039 2.18182 12 2.18182Z" fill="white"/>
<path d="M16.3643 13.0906H12.0007C11.7114 13.0906 11.4339 12.9756 11.2293 12.771C11.0247 12.5664 10.9098 12.289 10.9098 11.9996V5.45419C10.9098 5.16486 11.0247 4.88739 11.2293 4.6828C11.4339 4.47822 11.7114 4.36328 12.0007 4.36328C12.29 4.36328 12.5675 4.47822 12.7721 4.6828C12.9767 4.88739 13.0916 5.16486 13.0916 5.45419V10.9087H16.3643C16.6537 10.9087 16.9311 11.0237 17.1357 11.2283C17.3403 11.4328 17.4552 11.7103 17.4552 11.9996C17.4552 12.289 17.3403 12.5664 17.1357 12.771C16.9311 12.9756 16.6537 13.0906 16.3643 13.0906Z" fill="white"/>
</svg>
