<svg width="127" height="21" viewBox="0 0 127 21" fill="none" xmlns="http://www.w3.org/2000/svg">
<path d="M31.7468 20.4104C31.4952 20.3799 30.9538 20.2426 30.5497 20.1054C28.064 19.3048 26.1426 17.2461 25.4106 14.608C25.1666 13.7311 25.0751 12.0232 25.22 11.0396C25.6775 7.9058 27.9725 5.32101 31.0148 4.49753C31.6705 4.32217 31.884 4.29929 33.0811 4.30692C34.2019 4.30692 34.5146 4.32979 35.0254 4.46704C36.2911 4.81015 38.0372 5.86999 38.4032 6.53334C38.67 7.00608 38.7082 7.57031 38.5023 8.03542C38.2812 8.5234 38.0829 8.7369 37.6178 8.95039C36.9316 9.27825 36.2911 9.15626 35.5363 8.56915C34.8729 8.05829 34.3773 7.8448 33.653 7.74568C31.1825 7.42544 29.0781 9.13338 28.735 11.741C28.5444 13.1745 28.979 14.5851 29.9321 15.622C30.8242 16.5828 31.7315 16.9869 32.9972 16.9869C33.9046 16.9869 34.6975 16.7353 35.5058 16.1939C36.2454 15.7059 36.5427 15.5915 37.0155 15.6297C38.0982 15.7212 38.7997 16.781 38.4947 17.8866C38.2354 18.8702 36.2682 20.0368 34.3087 20.3799C33.6225 20.5019 32.4864 20.5171 31.7468 20.4104Z" fill="#E54724"/>
<path d="M45.6225 20.4153C42.4124 19.9121 39.9649 17.7085 39.1872 14.6129C38.7068 12.699 38.8898 10.3887 39.6599 8.73418C41.0247 5.7834 43.9298 4.10595 47.4143 4.2737C49.8389 4.39569 51.8671 5.37166 53.2548 7.11011C54.6807 8.88667 55.2906 11.2961 54.9323 13.7055C54.4138 17.129 52.1416 19.5842 48.8325 20.3085C48.192 20.4534 46.2706 20.5144 45.6225 20.4153ZM48.2682 16.8622C49.0002 16.641 49.6712 16.2369 50.1897 15.688C52.439 13.2938 51.5698 9.02392 48.6114 7.98695C46.8653 7.36935 45.0201 7.76583 43.7925 9.00867C41.6195 11.197 42.2218 15.2305 44.9134 16.5572C45.897 17.0452 47.2237 17.1672 48.2682 16.8622Z" fill="#E54724"/>
<path d="M106.205 20.4472C104.237 20.0812 102.911 19.4255 101.698 18.2132C100.707 17.2143 99.9751 15.9257 99.5939 14.5075C99.4109 13.8137 99.388 13.6231 99.388 12.3726C99.388 11.1298 99.4109 10.9315 99.5939 10.2377C100.028 8.59836 101.05 6.99716 102.316 5.98307C103.109 5.34259 104.375 4.70211 105.328 4.46574C106.296 4.22175 108.309 4.22175 109.216 4.47337C110.314 4.77073 111.656 5.50271 112.342 6.18894C112.678 6.53205 112.838 6.93616 112.838 7.46227C112.83 8.62123 111.496 9.4752 110.436 8.98722C110.269 8.91097 109.864 8.65936 109.529 8.41536C108.766 7.87401 108.317 7.73676 107.272 7.72914C106.632 7.72914 106.365 7.75964 105.961 7.89688C104.565 8.37724 103.421 9.64295 103.04 11.1527C102.895 11.7398 102.895 13.0055 103.04 13.5926C103.444 15.1785 104.779 16.5738 106.205 16.9017C106.395 16.9475 106.837 16.9856 107.196 16.9856C108.202 16.9856 108.835 16.7721 109.887 16.0859C110.566 15.6436 110.993 15.5369 111.542 15.6818C112.952 16.0554 113.212 17.9463 111.976 18.8689C110.535 19.944 109.216 20.4091 107.424 20.4548C106.86 20.4701 106.311 20.4701 106.205 20.4472Z" fill="#E54724"/>
<path d="M57.9014 20.2706C57.5507 20.1868 57.2381 19.9961 56.9712 19.714C56.4756 19.1955 56.4908 19.4624 56.4908 12.3714C56.4908 5.28037 56.4756 5.54724 56.9712 5.02876C57.3601 4.62464 57.7565 4.44928 58.2827 4.44928C58.8469 4.4569 59.2357 4.63989 59.6551 5.105C59.8229 5.288 61.3173 7.24756 62.9719 9.45874L65.9837 13.477L66.0218 9.61123C66.0523 6.86632 66.0828 5.67686 66.1514 5.53962C66.3954 4.99063 66.9825 4.5484 67.6001 4.44165C68.3473 4.31965 69.2852 4.87626 69.5368 5.59299C69.6283 5.83698 69.6435 7.05694 69.6435 12.3714C69.6435 17.6858 69.6283 18.9058 69.5368 19.1498C69.4834 19.3175 69.2852 19.592 69.1022 19.775C68.3702 20.507 67.1807 20.4841 66.5098 19.714C66.3878 19.5768 64.9162 17.6325 63.2387 15.406L60.1888 11.3497L60.1507 15.1392L60.1126 18.9287L59.9296 19.2947C59.7085 19.7445 59.312 20.08 58.824 20.2249C58.4199 20.3469 58.2598 20.3545 57.9014 20.2706Z" fill="#E54724"/>
<path d="M73.3488 20.2492C73.021 20.1577 72.6321 19.8985 72.4262 19.6316C72.0298 19.136 72.045 19.38 72.045 12.3576C72.045 6.18916 72.0526 5.8003 72.1899 5.51056C72.4949 4.83958 73.1048 4.44309 73.8368 4.45072C74.4087 4.45834 74.8128 4.65659 75.2169 5.1217C75.3846 5.30469 76.8562 7.249 78.4879 9.42968C80.1272 11.6104 81.4844 13.3945 81.5226 13.3945C81.5531 13.4022 81.5759 11.7324 81.5759 9.68892C81.5759 7.30238 81.6064 5.8613 81.6598 5.6783C81.7589 5.32757 82.1859 4.82433 82.5595 4.63371C83.4593 4.18385 84.5801 4.54984 84.9995 5.43431C85.1596 5.77743 85.1596 5.80792 85.1596 12.3728C85.1596 18.9377 85.1596 18.9682 84.9995 19.3114C84.6868 19.9747 83.8557 20.4169 83.1543 20.3026C82.3613 20.173 82.3994 20.2111 78.9454 15.6134C77.1841 13.2649 75.7201 11.3435 75.6896 11.3435C75.6515 11.3435 75.6286 13.0514 75.6286 15.1406V18.9377L75.4304 19.3342C75.2016 19.7993 74.8662 20.0815 74.3629 20.234C73.9588 20.3559 73.7224 20.3559 73.3488 20.2492Z" fill="#E54724"/>
<path d="M88.5674 20.2197C88.3234 20.1434 88.0794 19.9909 87.8659 19.7698C87.2635 19.1751 87.2864 19.4801 87.3093 12.1756L87.3322 5.74029L87.4999 5.42005C87.721 5.00832 88.1556 4.65758 88.6207 4.52033C89.1697 4.35259 97.3053 4.35259 97.8467 4.51271C98.8074 4.80245 99.303 5.73267 99.0285 6.73151C98.9142 7.13562 98.3347 7.7151 97.9306 7.82947C97.7323 7.88285 96.4971 7.91335 94.2936 7.91335H90.9539V9.24768V10.582H93.3405C95.9939 10.582 96.0701 10.5973 96.5734 11.1234C97.5036 12.107 97.0003 13.7234 95.6736 14.0055C95.4525 14.0513 94.3774 14.0894 93.127 14.0894H90.9539V15.4618V16.8343H94.2936C96.4971 16.8343 97.7323 16.8648 97.9306 16.9182C98.3347 17.0325 98.9142 17.612 99.0285 18.0161C99.2268 18.7329 98.998 19.5258 98.4795 19.9223C97.9306 20.3341 97.8543 20.3417 93.2108 20.3341C89.6577 20.3341 88.8724 20.3112 88.5674 20.2197Z" fill="#E54724"/>
<path d="M119.879 20.234C119.406 20.0815 119.04 19.7689 118.819 19.3267L118.628 18.9378V13.4251V7.91245H116.897C114.923 7.91245 114.77 7.87432 114.267 7.31772C113.512 6.47899 113.756 5.15229 114.762 4.61093L115.083 4.44318L120.222 4.42031C126.017 4.39744 125.902 4.38981 126.466 4.93879C126.84 5.29716 127.061 5.92239 126.985 6.40275C126.878 7.05847 126.367 7.67608 125.795 7.8362C125.651 7.88195 124.781 7.91245 123.874 7.91245H122.212V13.4251C122.212 18.6023 122.197 18.9455 122.067 19.2352C121.693 20.051 120.702 20.5085 119.879 20.234Z" fill="#E54724"/>
<path d="M6.95133 20.3853C3.94718 19.8135 1.40814 17.5947 0.424545 14.6973C0.0204333 13.5078 -0.0176904 13.058 0.00518386 9.91656L0.0280581 7.6825C0.0280581 5.98495 1.6012 4.42188 3.31677 4.42188H6.06168C6.59541 4.42188 7.20539 4.87936 7.20539 5.37497L7.23345 8.88721C7.27157 12.204 7.2792 12.4632 7.41644 12.6843C7.60706 13.0046 7.9578 13.1952 8.34666 13.1952C8.59828 13.1952 8.76602 13.1342 9.08626 12.9131C9.74199 12.4632 10.3596 12.4632 10.9086 12.9283C11.2059 13.1799 11.3508 13.5231 11.3508 13.9729C11.3508 14.4228 11.2136 14.682 10.7713 15.0709C8.68977 16.9008 5.32726 15.8105 4.60291 13.0885C4.51141 12.7682 4.48854 12.0667 4.48854 9.90131V7.05241H3.88862C3.43114 7.05241 2.77297 7.43365 2.77297 8.00551L2.75009 10.1072C2.72722 12.7453 2.77297 13.2104 3.16183 14.1635C3.71081 15.5131 4.82403 16.6797 6.12023 17.2516C6.85984 17.5794 7.44694 17.6938 8.33904 17.6938C9.559 17.7014 10.3138 17.4727 11.5414 16.7178C11.9608 16.4586 12.037 16.4433 12.4717 16.4662C12.9978 16.4967 13.257 16.6416 13.5391 17.0609C13.745 17.3659 13.8212 17.7319 13.7526 18.0979C13.623 18.7918 12.0142 19.8135 10.3977 20.2328C9.44463 20.4768 7.81293 20.5455 6.95133 20.3853Z" fill="#E54724"/>
<path d="M14.2031 15.676C14.0429 15.5769 13.7989 15.3557 13.6769 15.1728C13.2271 14.5323 13.4101 13.6097 14.0811 13.1369C14.3632 12.9387 14.4699 12.9082 14.9274 12.9082C15.3849 12.9082 15.4916 12.9387 15.7738 13.1369C16.2007 13.4419 16.4142 13.8613 16.4142 14.395C16.4066 14.8983 16.2389 15.2261 15.8195 15.5692C15.5679 15.7675 15.4535 15.8056 15.0189 15.8285C14.5995 15.8437 14.4547 15.8209 14.2031 15.676Z" fill="#E54724"/>
<path d="M10.1712 11.4502C9.42396 11.0385 9.09609 10.2074 9.40108 9.49067C9.5307 9.19331 9.94244 8.7892 10.2322 8.68245C10.9108 8.42321 11.719 8.70533 12.085 9.33056C12.2604 9.62792 12.2832 9.73467 12.2527 10.1617C12.2222 10.703 12.1079 10.9165 11.6275 11.2977C11.3988 11.4884 11.2691 11.5341 10.8727 11.5494C10.5448 11.5646 10.3313 11.5341 10.1712 11.4502Z" fill="#E54724"/>
<path d="M14.6714 11.435C13.6954 10.9699 13.5048 9.71185 14.2978 8.96462C14.5875 8.69775 14.862 8.59863 15.3424 8.59863C16.7911 8.60626 17.34 10.4896 16.1353 11.3207C15.7465 11.5952 15.1136 11.6409 14.6714 11.435Z" fill="#E54724"/>
<path d="M20.287 11.4099C19.189 10.8686 19.189 9.29787 20.287 8.74126C20.7597 8.49727 21.4612 8.55827 21.85 8.87851C22.2923 9.22924 22.4448 9.54948 22.4448 10.0985C22.4448 10.495 22.4143 10.6169 22.216 10.8914C21.7662 11.5243 20.9656 11.7454 20.287 11.4099Z" fill="#E54724"/>
<path d="M10.3322 7.22524C9.73752 7.04225 9.29528 6.42464 9.28766 5.76892C9.28766 4.83107 10.2255 4.09147 11.1176 4.32021C11.8877 4.52608 12.2994 5.09794 12.2461 5.89854C12.2232 6.29502 12.1774 6.43227 11.9868 6.66864C11.5751 7.18712 10.9346 7.40061 10.3322 7.22524Z" fill="#E54724"/>
<path d="M14.8319 7.22493C14.4812 7.11818 14.1152 6.79794 13.9398 6.42433C13.3908 5.28062 14.4659 3.99966 15.7011 4.32752C16.3721 4.51052 16.9135 5.34924 16.7838 6.02022C16.6161 6.92756 15.7087 7.48417 14.8319 7.22493Z" fill="#E54724"/>
<path d="M14.8263 2.91751C13.919 2.59727 13.5225 1.46881 14.041 0.675837C14.9712 -0.727116 17.1595 0.241227 16.7477 1.87292C16.6334 2.34566 16.153 2.82602 15.6803 2.94039C15.238 3.05476 15.1999 3.05476 14.8263 2.91751Z" fill="#E54724"/>
</svg>
