<svg width="81" height="21" viewBox="0 0 81 21" fill="none" xmlns="http://www.w3.org/2000/svg">
<path d="M29.71 0H22.8041L29.9705 10.0206L22.8049 20.0412H29.7091L36.8764 10.0206L29.71 0ZM28.9417 18.3494H25.9906L31.9471 10.0206L25.9906 1.69098H28.9417L34.899 10.0206L28.9417 18.3494ZM34.5307 3.97735L37.9836 8.80562L44.2799 0H37.3749L34.5307 3.97735ZM34.5299 16.0647L37.3757 20.0412H44.2808L37.9845 11.2365L34.5315 16.0647H34.5299Z" fill="#566775"/>
<path d="M24.9546 14.3103L28.0225 10.0206L24.9546 5.73096H18.5848L21.6536 10.0206L18.5856 14.3103H24.9554H24.9546ZM23.4757 10.0206L21.5217 7.28833H24.2439L26.1938 10.0139L26.1988 10.0206L26.1938 10.0273L24.2448 12.7529H21.5225L23.4757 10.0206Z" fill="#566775"/>
<path d="M56.3309 0H45.1788V5.90882H50.8663V20.0412H56.3309V5.90882H62.0184V0H56.3309ZM12.2853 7.61316H5.46458V0H0V20.0412H5.46458V12.4272H12.2853V20.0412H17.7499V0H12.2853V7.61316ZM74.7263 9.73837L80.7136 0H75.2498L70.6337 7.50711H68.8834V0H63.418V20.0412H68.8834V12.3212H70.8341L75.5354 20.0412H81L74.7263 9.73837Z" fill="#00672D"/>
</svg>
