<svg width="92" height="20" viewBox="0 0 92 20" fill="none" xmlns="http://www.w3.org/2000/svg">
<path d="M2.54192 0.621094H0V19.1082H2.54192V0.621094Z" fill="#00A460"/>
<path d="M45.1717 0.621094H42.6297V19.1082H45.1717V0.621094Z" fill="#00A460"/>
<path d="M52.8524 0.490234H35.146V2.98961H52.8524V0.490234Z" fill="#00A460"/>
<path d="M68.6543 8.52539H55.5785V11.0248H68.6543V8.52539Z" fill="#00A460"/>
<path d="M69.6722 19.3728H59.5023C56.7309 19.3728 55.3246 18.188 55.3246 15.8502V3.83802C55.3246 1.49287 56.6341 0.146484 58.9123 0.146484H69.5827V2.64586H58.9123C58.4414 2.64586 58.23 2.73644 58.1378 2.81232C57.9659 2.94941 57.8691 3.32395 57.8691 3.83802V15.8502C57.8691 16.1195 57.8964 16.4671 58.0309 16.5846C58.1028 16.6532 58.4241 16.8686 59.5023 16.8686H69.6722V19.3728Z" fill="#00A460"/>
<path d="M32.1157 19.3739H20.9124C19.6949 19.3739 18.7812 18.8133 18.47 17.8733C18.0941 16.7472 18.719 15.3666 19.9962 14.4461C20.6161 13.9982 21.8933 13.1878 23.3721 12.2429C25.1821 11.0973 27.2335 9.79499 28.0875 9.14626C29.3846 8.16709 30.1016 7.60891 30.1016 4.99937C30.1198 4.71706 30.0583 4.43526 29.9238 4.18514C29.7894 3.93501 29.5873 3.72629 29.3398 3.58202C28.7422 3.20014 27.7838 2.98961 26.6435 2.98961H20.0758V0.490234H26.651C30.3531 0.490234 32.651 2.2185 32.651 4.99937C32.651 8.55872 31.4062 9.78272 29.6634 11.1193C28.7223 11.8366 26.7107 13.1095 24.7663 14.3433C23.3821 15.2196 22.075 16.0569 21.5298 16.451C21.3645 16.5689 21.2184 16.7109 21.0966 16.872H32.1157V19.3739Z" fill="#00A460"/>
<path d="M17.8506 20.0003L17.9076 19.9293L17.8506 19.8828V20.0003Z" fill="#00A460"/>
<path d="M16.8943 19.1072C13.2669 16.1574 7.51585 11.4328 6.43036 10.3802C6.06686 10.0301 5.93245 9.78776 5.93245 9.67758C5.93245 9.56744 6.08181 9.28349 6.49263 8.90403C7.42621 8.04722 14.2951 2.0742 15.9532 0.625H12.1341C9.46025 2.96281 5.48927 6.41691 4.76977 7.07786C3.85857 7.91259 3.41044 8.74981 3.40048 9.6433C3.39052 10.5368 3.79633 11.3373 4.64532 12.1623C5.64113 13.1194 9.83866 16.5882 12.9134 19.1072H16.8943Z" fill="#00A460"/>
<path d="M88.7909 19.4614H91.8181C90.3668 17.4026 86.7418 12.2521 85.8432 10.9155C85.2082 9.96568 85.2054 9.42959 85.8304 8.52874C86.5772 7.46874 90.979 0.888614 91.574 0H88.5863C87.0927 2.23255 84.3218 6.3647 83.7714 7.14806C82.5791 8.86164 82.5741 10.4895 83.7714 12.2619C84.5209 13.3879 87.0827 17.0354 88.7909 19.4614Z" fill="#00A460"/>
<path d="M79.0981 10.9155C78.2045 12.2521 74.5795 17.4026 73.1231 19.4614H76.1504C77.8581 17.0354 80.4199 13.3879 81.1717 12.2619C82.3572 10.4895 82.3545 8.8641 81.1595 7.1456C80.6145 6.3647 77.8458 2.23255 76.3495 0H73.3618C73.9568 0.888614 78.3686 7.46874 79.1054 8.52874C79.7354 9.42959 79.7331 9.96568 79.0981 10.9155Z" fill="#00A460"/>
</svg>
