<svg width="105" height="22" viewBox="0 0 105 22" fill="none" xmlns="http://www.w3.org/2000/svg">
<path d="M82.6926 17.5481L82.8809 20.6283C82.3763 20.8806 81.0885 21.0049 80.4257 21.0049C77.1045 21.0049 74.751 18.9226 74.6568 15.2662H78.155C78.209 15.9567 78.5281 16.5994 79.0454 17.06C79.5628 17.5204 80.2382 17.7628 80.9303 17.7364C81.522 17.7235 82.1115 17.6604 82.6926 17.5481ZM35.1482 20.7866H38.6351V1.30713H35.1482V20.7866ZM65.9206 8.46917C67.585 8.46917 68.967 9.28634 69.5958 10.5103L72.5481 8.84579C71.4184 6.58636 68.9068 5.10657 65.9206 5.10657C64.8623 5.08447 63.8104 5.27671 62.8282 5.67157C61.846 6.06644 60.9538 6.65592 60.2053 7.40442C59.4568 8.15292 58.8673 9.04515 58.4725 10.0273C58.0776 11.0095 57.8854 12.0614 57.9075 13.1198C57.9075 17.6761 61.3981 21.0991 65.9508 21.0991C68.7712 21.0991 71.2 19.8113 72.5368 17.7702L69.6146 15.9779C69.1947 16.5487 68.641 17.0075 68.0021 17.3141C67.3632 17.6207 66.6588 17.7657 65.9508 17.7364C65.3445 17.7436 64.7432 17.6288 64.1823 17.3988C63.6215 17.1687 63.1127 16.8281 62.6861 16.3975C62.2596 15.9667 61.9241 15.4545 61.6995 14.8915C61.4751 14.3284 61.3662 13.7258 61.3792 13.1198C61.3792 10.4838 63.296 8.46917 65.9356 8.46917M33.1599 12.4306C33.1681 11.4615 32.9822 10.5005 32.6133 9.60423C32.2442 8.70799 31.6997 7.89467 31.0116 7.21203C30.3235 6.52954 29.5057 5.99168 28.6063 5.63004C27.7071 5.2684 26.7446 5.0904 25.7755 5.10657C24.7341 5.09544 23.7008 5.29243 22.7363 5.68597C21.7718 6.07935 20.8958 6.66141 20.1593 7.39804C19.4226 8.13452 18.8406 9.01059 18.4472 9.97506C18.0537 10.9395 17.8567 11.9728 17.8678 13.0143C17.8487 14.0713 18.041 15.1217 18.4337 16.1034C18.8262 17.085 19.4109 17.9783 20.1536 18.7308C20.8962 19.4833 21.7819 20.0798 22.7582 20.4852C23.7347 20.8906 24.7823 21.0967 25.8396 21.0916C29.014 21.0916 31.5896 19.8338 32.7194 17.7628L29.9252 15.9703C29.2022 17.1639 27.6319 17.9172 25.9035 17.9172C23.422 17.9172 21.7238 16.4109 21.3471 13.9294H33.0206C33.1061 13.4319 33.1476 12.9278 33.1448 12.4232M21.4639 11.2671C21.9986 9.25623 23.4747 7.9985 25.5797 7.9985C27.6847 7.9985 29.2888 9.35042 29.4771 11.2671H21.4639ZM55.9229 12.4306C55.9311 11.4615 55.7452 10.5005 55.3763 9.60423C55.0074 8.70799 54.4627 7.89467 53.7746 7.21203C53.0864 6.52954 52.2687 5.99168 51.3695 5.63004C50.4703 5.2684 49.5077 5.0904 48.5386 5.10657C47.497 5.09544 46.4637 5.29243 45.4994 5.68597C44.5349 6.07935 43.6587 6.66141 42.9223 7.39804C42.1858 8.13452 41.6037 9.01059 41.2102 9.97506C40.8168 10.9395 40.6198 11.9728 40.6308 13.0143C40.6112 14.0715 40.8033 15.122 41.1956 16.104C41.588 17.0858 42.1727 17.9793 42.9156 18.732C43.6583 19.4845 44.544 20.0809 45.5208 20.4862C46.4974 20.8915 47.5452 21.0972 48.6026 21.0916C51.7771 21.0916 54.3526 19.8338 55.4823 17.7628L52.6846 15.9703C51.9653 17.1639 50.3913 17.9172 48.6667 17.9172C46.1813 17.9172 44.4869 16.4109 44.1103 13.9294H55.7836C55.8702 13.432 55.9131 12.928 55.9116 12.4232M44.2383 11.2633C44.773 9.25252 46.2491 7.99479 48.3541 7.99479C50.459 7.99479 52.0632 9.34657 52.2515 11.2633H44.2383ZM99.5248 12.4306C99.5325 11.4618 99.3462 10.5012 98.977 9.60541C98.608 8.70962 98.0633 7.8966 97.3752 7.21455C96.687 6.53236 95.8694 5.9948 94.9705 5.63345C94.0714 5.27211 93.1092 5.09426 92.1406 5.11028C91.0991 5.09975 90.0661 5.29703 89.1019 5.69071C88.1376 6.08439 87.2617 6.66646 86.5254 7.40294C85.7889 8.13927 85.2068 9.01519 84.8131 9.97951C84.4195 10.9437 84.2222 11.9767 84.2327 13.0181C84.2142 14.0749 84.4068 15.1246 84.7996 16.1059C85.1924 17.0871 85.7773 17.9801 86.5199 18.7321C87.2626 19.4842 88.148 20.0804 89.1242 20.4855C90.1002 20.8907 91.1476 21.0967 92.2045 21.0916C95.3752 21.0916 97.9546 19.8338 99.0843 17.7628L96.2864 15.9703C95.5634 17.1639 93.9931 17.9172 92.2647 17.9172C89.7832 17.9172 88.0887 16.4109 87.7122 13.9294H99.3855C99.4722 13.432 99.515 12.928 99.5135 12.4232M87.8402 11.2633C88.375 9.25252 89.851 7.99479 91.956 7.99479C94.0609 7.99479 95.6613 9.34657 95.8534 11.2633H87.8402ZM101.513 20.7827H105V1.30713H101.513V20.7827ZM11.583 17.1791C10.6752 17.7249 9.62944 17.9982 8.57048 17.9661C7.39863 17.9928 6.24906 17.6431 5.29067 16.9681C4.36077 16.2882 3.7113 15.2918 3.46436 14.1666L0 14.69C0.182481 15.9259 0.681954 17.0935 1.44976 18.079C2.22268 19.0555 3.23065 19.8199 4.3794 20.3008C5.64737 20.8381 7.01274 21.1073 8.38981 21.0916C9.73787 21.1055 11.076 20.8613 12.3324 20.3723C13.4756 19.9368 14.4745 19.1908 15.2168 18.2183C15.8571 17.3618 16.2281 16.3342 16.2824 15.2662H12.8219C12.7863 15.6616 12.6549 16.0425 12.439 16.3758C12.2232 16.7092 11.9294 16.9849 11.583 17.1791Z" fill="#00223A"/>
<path d="M78.1327 13.9369H74.6457V8.75176V1.30714H78.1327V5.42283H82.7229V8.75176H78.1327V13.9369ZM15.4392 11.8018C14.9221 11.1046 14.2421 10.5447 13.4585 10.1713C12.6305 9.79485 11.7728 9.4875 10.894 9.25254L7.26403 8.21315C6.49802 8.04286 5.76524 7.74783 5.09505 7.33961C4.83185 7.172 4.61764 6.93778 4.47413 6.66069C4.33063 6.3836 4.26294 6.07343 4.27791 5.76177C4.2761 5.2469 4.46681 4.74999 4.81263 4.36847C5.20163 3.94498 5.69121 3.62635 6.23603 3.44227C6.84483 3.22154 7.49054 3.12053 8.13769 3.14471C9.1704 3.14575 10.1758 3.47698 11.0071 4.0899C11.8226 4.68442 12.3856 5.56316 12.5848 6.55255L16.1584 5.96143C15.9009 4.7884 15.3766 3.69043 14.6259 2.7531C13.8972 1.86517 12.959 1.1729 11.8958 0.738424C10.7205 0.258265 9.46366 0.00891693 8.19421 0.00417022C6.89952 -0.0341001 5.61064 0.191367 4.40594 0.666927C3.35469 1.08167 2.44127 1.78374 1.77003 2.69288C1.10282 3.63288 0.758017 4.76378 0.787195 5.91619C0.787195 7.47519 1.219 8.63502 2.08257 9.39568C3.01158 10.1908 4.11035 10.7627 5.29462 11.0676L10.5438 12.619C11.1892 12.7874 11.7838 13.1106 12.2761 13.5603C12.382 13.6757 12.4754 13.802 12.5547 13.9369H16.2488C16.1768 13.1652 15.8969 12.4273 15.4392 11.8018Z" fill="#E83A50"/>
</svg>
